<svg width="36" height="36" viewBox="0 0 36 36" fill="none" xmlns="http://www.w3.org/2000/svg">
<rect width="36" height="36" rx="4" fill="#FAEDDA"/>
<g clip-path="url(#clip0_2_22501)">
<path d="M22.8125 15.5C21.5764 15.5 20.368 15.8666 19.3402 16.5533C18.3124 17.2401 17.5113 18.2162 17.0383 19.3582C16.5652 20.5003 16.4414 21.7569 16.6826 22.9693C16.9238 24.1817 17.519 25.2953 18.3931 26.1694C19.2672 27.0435 20.3808 27.6387 21.5932 27.8799C22.8056 28.1211 24.0622 27.9973 25.2043 27.5242C26.3463 27.0512 27.3224 26.2501 28.0092 25.2223C28.6959 24.1945 29.0625 22.9861 29.0625 21.75C29.0625 20.9292 28.9008 20.1165 28.5867 19.3582C28.2727 18.5999 27.8123 17.9109 27.2319 17.3306C26.6516 16.7502 25.9626 16.2898 25.2043 15.9758C24.446 15.6617 23.6333 15.5 22.8125 15.5ZM24.0625 19.9181H24.3619C24.4725 19.9181 24.5784 19.962 24.6566 20.0401C24.7347 20.1182 24.7786 20.2242 24.7786 20.3347C24.7786 20.4452 24.7347 20.5512 24.6566 20.6293C24.5784 20.7075 24.4725 20.7514 24.3619 20.7514H24.1636C24.1164 21.2401 23.889 21.6937 23.5257 22.0239C23.1624 22.3542 22.6893 22.5374 22.1983 22.5381H22.0658L23.6514 24.2097C23.6905 24.2491 23.7214 24.2959 23.7422 24.3474C23.763 24.3989 23.7733 24.4541 23.7725 24.5096C23.7717 24.5651 23.7598 24.6199 23.7375 24.6708C23.7152 24.7217 23.6829 24.7675 23.6426 24.8058C23.6023 24.844 23.5548 24.8738 23.5028 24.8934C23.4509 24.9129 23.3955 24.9219 23.34 24.9198C23.2845 24.9177 23.23 24.9045 23.1797 24.881C23.1293 24.8575 23.0842 24.8242 23.0469 24.7831L20.7942 22.4081C20.7381 22.3489 20.7006 22.2747 20.6864 22.1945C20.6721 22.1143 20.6816 22.0317 20.7137 21.9569C20.7459 21.8821 20.7993 21.8183 20.8673 21.7735C20.9353 21.7287 21.0149 21.7048 21.0964 21.7047H22.1983C22.4679 21.7041 22.7285 21.608 22.934 21.4335C23.1394 21.259 23.2764 21.0173 23.3206 20.7514H21.115C21.0045 20.7514 20.8985 20.7075 20.8204 20.6293C20.7422 20.5512 20.6983 20.4452 20.6983 20.3347C20.6983 20.2242 20.7422 20.1182 20.8204 20.0401C20.8985 19.962 21.0045 19.9181 21.115 19.9181H23.1394C23.0349 19.7653 22.8946 19.6403 22.7309 19.554C22.5672 19.4676 22.3848 19.4225 22.1997 19.4225H21.0978C20.9873 19.4225 20.8813 19.3786 20.8032 19.3005C20.725 19.2223 20.6811 19.1163 20.6811 19.0058C20.6811 18.8953 20.725 18.7893 20.8032 18.7112C20.8813 18.6331 20.9873 18.5892 21.0978 18.5892H22.1997C22.2153 18.5892 22.23 18.5911 22.2453 18.5914H24.3633C24.4738 18.5914 24.5798 18.6353 24.658 18.7134C24.7361 18.7916 24.78 18.8975 24.78 19.0081C24.78 19.1186 24.7361 19.2245 24.658 19.3027C24.5798 19.3808 24.4738 19.4247 24.3633 19.4247H23.81C23.9175 19.5764 24.003 19.7425 24.0639 19.9181H24.0625Z" fill="#CF6827"/>
<path d="M15.8984 15.1094C19.5125 15.1094 22.3438 13.565 22.3438 11.5938C22.3438 9.6225 19.5125 8 15.8984 8C12.2844 8 9.375 9.6225 9.375 11.5938C9.375 13.565 12.2844 15.1094 15.8984 15.1094Z" fill="#CF6827"/>
<path d="M9.375 21.186V22.1408C9.375 24.112 12.2844 25.6564 15.8984 25.6564C16.1034 25.6564 16.3021 25.6375 16.5039 25.6276C16.0545 24.921 15.7193 24.1368 15.5219 23.2985C12.9084 23.2264 10.6391 22.4233 9.375 21.186Z" fill="#CF6827"/>
<path d="M15.3407 22.1109C15.3272 21.9266 15.3125 21.7425 15.3125 21.5548C15.3125 20.944 15.3925 20.3528 15.529 19.7832C12.9123 19.7123 10.6403 18.9088 9.375 17.6704V18.6251C9.375 20.4918 12.0024 21.9588 15.3407 22.1109Z" fill="#CF6827"/>
<path d="M15.8984 18.6251C15.8991 18.6251 15.8996 18.6251 15.9002 18.6251C16.2867 17.7015 16.8484 16.8689 17.5461 16.1713C17.0169 16.2382 16.47 16.2814 15.8984 16.2814C13.1165 16.2814 10.7002 15.4518 9.375 14.1548V15.1095C9.375 17.0808 12.2844 18.6251 15.8984 18.6251Z" fill="#CF6827"/>
</g>
<defs>
<clipPath id="clip0_2_22501">
<rect width="20" height="20" fill="white" transform="translate(9.375 8)"/>
</clipPath>
</defs>
</svg>
