<svg width="36" height="36" viewBox="0 0 36 36" fill="none" xmlns="http://www.w3.org/2000/svg">
<rect width="36" height="36" rx="4" fill="#E8EEF6"/>
<path d="M23.5775 23.4166H14.9237C14.5028 23.4166 14.1465 23.2708 13.8548 22.9791C13.5632 22.6875 13.4173 22.3312 13.4173 21.9102V10.7564C13.4173 10.3355 13.5632 9.97917 13.8548 9.6875C14.1465 9.39583 14.5028 9.25 14.9237 9.25H20.0856C20.2864 9.25 20.4795 9.289 20.6649 9.367C20.8503 9.44499 21.0113 9.55235 21.1481 9.6891L24.6448 13.1859C24.7816 13.3226 24.889 13.4837 24.9669 13.669C25.0449 13.8544 25.0839 14.0475 25.0839 14.2484V21.9102C25.0839 22.3312 24.9381 22.6875 24.6464 22.9791C24.3548 23.2708 23.9985 23.4166 23.5775 23.4166ZM23.834 14.25L20.084 10.5V13.2404C20.084 13.5235 20.1815 13.7625 20.3765 13.9575C20.5714 14.1525 20.8105 14.25 21.0936 14.25H23.834ZM11.5904 26.75C11.1695 26.75 10.8132 26.6041 10.5215 26.3125C10.2298 26.0208 10.084 25.6645 10.084 25.2435V14.875C10.084 14.6977 10.1438 14.5492 10.2635 14.4295C10.3831 14.3098 10.5316 14.25 10.709 14.25C10.8863 14.25 11.0348 14.3098 11.1545 14.4295C11.2741 14.5492 11.334 14.6977 11.334 14.875V25.2435C11.334 25.3077 11.3607 25.3664 11.4141 25.4199C11.4675 25.4733 11.5263 25.5 11.5904 25.5H19.4589C19.6363 25.5 19.7848 25.5598 19.9044 25.6795C20.0241 25.7991 20.0839 25.9476 20.0839 26.125C20.0839 26.3023 20.0241 26.4508 19.9044 26.5705C19.7848 26.6901 19.6363 26.75 19.4589 26.75L11.5904 26.75Z" fill="#4E85B8"/>
</svg>
