<svg width="36" height="36" viewBox="0 0 36 36" fill="none" xmlns="http://www.w3.org/2000/svg">
<rect width="36" height="36" rx="4" fill="#EFEFF8"/>
<path fill-rule="evenodd" clip-rule="evenodd" d="M26.1112 20.2207H22.2024C21.9993 20.2215 21.8047 20.3025 21.661 20.4462C21.5174 20.5898 21.4363 20.7844 21.4355 20.9876V22.2927C21.4363 22.4958 21.5174 22.6904 21.661 22.8341C21.8047 22.9777 21.9993 23.0587 22.2024 23.0595H26.1112V20.2207ZM23.0087 20.7353C23.218 20.7353 23.4209 20.8079 23.5827 20.9407C23.7445 21.0735 23.8553 21.2583 23.8962 21.4636C23.937 21.6689 23.9054 21.8821 23.8067 22.0667C23.708 22.2513 23.5484 22.396 23.355 22.4761C23.1616 22.5562 22.9464 22.5668 22.746 22.506C22.5457 22.4453 22.3726 22.3169 22.2563 22.1428C22.14 21.9688 22.0877 21.7598 22.1082 21.5514C22.1287 21.3431 22.2209 21.1483 22.3689 21.0003C22.4528 20.9162 22.5525 20.8494 22.6623 20.804C22.7721 20.7585 22.8898 20.7352 23.0087 20.7353Z" fill="#7F6ABD"/>
<path fill-rule="evenodd" clip-rule="evenodd" d="M12.7959 10.2212C13.3372 9.85956 13.9736 9.6665 14.6247 9.6665C15.0569 9.6665 15.485 9.75165 15.8843 9.91707C16.2837 10.0825 16.6466 10.325 16.9522 10.6306C17.2579 10.9363 17.5004 11.2991 17.6658 11.6985C17.8312 12.0979 17.9163 12.5259 17.9163 12.9582C17.9163 13.6092 17.7233 14.2456 17.3616 14.7869C17.1816 15.0563 16.9638 15.2962 16.7163 15.4998H12.533C12.4512 15.4325 12.3725 15.3611 12.2971 15.2857C11.8368 14.8254 11.5233 14.2389 11.3963 13.6003C11.2692 12.9618 11.3344 12.3 11.5836 11.6985C11.8327 11.097 12.2546 10.5829 12.7959 10.2212ZM15.4407 11.9933H15.283C15.2509 11.9009 15.2066 11.8134 15.15 11.7335H15.4414C15.4996 11.7335 15.5555 11.7104 15.5966 11.6692C15.6378 11.6281 15.6609 11.5723 15.6609 11.5141C15.6609 11.4559 15.6378 11.4001 15.5966 11.3589C15.5555 11.3178 15.4996 11.2946 15.4414 11.2946H14.3259C14.3222 11.2946 14.3186 11.2943 14.315 11.2941C14.3107 11.2938 14.3064 11.2935 14.3019 11.2935H13.7216C13.6634 11.2935 13.6076 11.3166 13.5664 11.3577C13.5253 11.3989 13.5021 11.4547 13.5021 11.5129C13.5021 11.5711 13.5253 11.6269 13.5664 11.6681C13.6076 11.7092 13.6634 11.7324 13.7216 11.7324H14.3019C14.3994 11.7324 14.4955 11.7561 14.5817 11.8016C14.6679 11.8471 14.7418 11.9129 14.7969 11.9933H13.7307C13.6725 11.9933 13.6166 12.0165 13.5755 12.0576C13.5343 12.0988 13.5112 12.1546 13.5112 12.2128C13.5112 12.271 13.5343 12.3268 13.5755 12.368C13.6166 12.4091 13.6725 12.4322 13.7307 12.4322H14.8923C14.869 12.5723 14.7968 12.6996 14.6886 12.7915C14.5804 12.8834 14.4432 12.934 14.3012 12.9343H13.7209C13.678 12.9343 13.636 12.9469 13.6002 12.9705C13.5644 12.9941 13.5363 13.0277 13.5193 13.0671C13.5024 13.1065 13.4974 13.1501 13.5049 13.1923C13.5124 13.2345 13.5322 13.2736 13.5617 13.3047L14.7481 14.5556C14.7678 14.5773 14.7915 14.5948 14.818 14.6072C14.8446 14.6196 14.8733 14.6265 14.9025 14.6276C14.9317 14.6287 14.9609 14.624 14.9882 14.6137C15.0156 14.6034 15.0407 14.5877 15.0619 14.5675C15.0831 14.5474 15.1001 14.5232 15.1118 14.4965C15.1236 14.4697 15.1298 14.4408 15.1303 14.4116C15.1307 14.3823 15.1253 14.3533 15.1143 14.3261C15.1034 14.299 15.0871 14.2744 15.0665 14.2536L14.2314 13.3732H14.3012C14.5598 13.3729 14.809 13.2764 15.0003 13.1024C15.1916 12.9285 15.3114 12.6896 15.3363 12.4322H15.4407C15.4989 12.4322 15.5547 12.4091 15.5959 12.368C15.637 12.3268 15.6602 12.271 15.6602 12.2128C15.6602 12.1546 15.637 12.0988 15.5959 12.0576C15.5547 12.0165 15.4989 11.9933 15.4407 11.9933Z" fill="#7F6ABD"/>
<path fill-rule="evenodd" clip-rule="evenodd" d="M19.5364 14.6946V13.5093H18.2281C18.1674 13.8958 18.0445 14.2699 17.8642 14.6171C17.7058 14.922 17.5053 15.2031 17.2686 15.4521H24.1792V14.0023C24.1792 13.701 23.8857 13.5093 23.6059 13.5093H22.5768V14.6946C22.5768 14.7633 22.5495 14.8291 22.501 14.8777C22.4524 14.9262 22.3866 14.9535 22.3179 14.9535H19.7953C19.7266 14.9535 19.6608 14.9262 19.6122 14.8777C19.5637 14.8291 19.5364 14.7633 19.5364 14.6946Z" fill="#7F6ABD"/>
<path fill-rule="evenodd" clip-rule="evenodd" d="M23.283 21.3664C23.2197 21.3031 23.1364 21.2636 23.0473 21.2548C22.9581 21.246 22.8687 21.2684 22.7942 21.3181C22.7197 21.3678 22.6648 21.4419 22.6388 21.5276C22.6127 21.6133 22.6172 21.7053 22.6515 21.7881C22.6858 21.8708 22.7476 21.9392 22.8266 21.9814C22.9056 22.0236 22.9968 22.0372 23.0846 22.0197C23.1725 22.0023 23.2516 21.9549 23.3084 21.8857C23.3652 21.8164 23.3963 21.7296 23.3963 21.6401C23.3964 21.5893 23.3864 21.5389 23.367 21.4919C23.3475 21.445 23.319 21.4023 23.283 21.3664Z" fill="#7F6ABD"/>
<path fill-rule="evenodd" clip-rule="evenodd" d="M10.9898 15.9701C10.5201 15.9701 10.1525 15.8249 9.8877 15.5986V25.7675C9.8877 26.575 10.62 27.147 11.3933 27.147H24.6059C25.3793 27.147 26.1114 26.575 26.1114 25.7675V23.5778H22.2027C21.8622 23.577 21.5359 23.4414 21.2951 23.2007C21.0543 22.9599 20.9186 22.6336 20.9178 22.2931V20.988C20.9186 20.6475 21.0542 20.3211 21.295 20.0804C21.5358 19.8396 21.8622 19.704 22.2027 19.7032H26.1114V17.3496C26.1114 16.5421 25.3791 15.9701 24.6059 15.9701H10.9898Z" fill="#7F6ABD"/>
<path fill-rule="evenodd" clip-rule="evenodd" d="M11.0242 13.5093C10.5861 13.5093 10.1692 13.6577 9.98017 14.0826C9.92561 14.2082 9.89746 14.3437 9.89746 14.4807C9.89746 14.6176 9.92561 14.7531 9.98017 14.8787C10.1233 15.2006 10.4588 15.4521 10.9896 15.4521H11.9838C11.747 15.2031 11.5465 14.9221 11.3882 14.6172C11.2078 14.2699 11.0849 13.8958 11.0242 13.5093Z" fill="#7F6ABD"/>
<path fill-rule="evenodd" clip-rule="evenodd" d="M20.0541 11.2467V14.4356H22.0589V11.2467C22.0589 11.2127 22.0656 11.179 22.0786 11.1476C22.0916 11.1162 22.1107 11.0876 22.1347 11.0636C22.1588 11.0395 22.1873 11.0204 22.2187 11.0074C22.2501 10.9944 22.2838 10.9877 22.3178 10.9877H22.9949L21.0565 8.85303L19.1182 10.9877H19.7952C19.8639 10.9877 19.9297 11.015 19.9783 11.0636C20.0268 11.1121 20.0541 11.178 20.0541 11.2467Z" fill="#7F6ABD"/>
</svg>
