<svg width="36" height="36" viewBox="0 0 36 36" fill="none" xmlns="http://www.w3.org/2000/svg">
<rect width="36" height="36" rx="4" fill="#DDEAE3"/>
<g clip-path="url(#clip0_2_22485)">
<path d="M18.6063 8C17.4974 8 16.4135 8.3288 15.4916 8.94482C14.5696 9.56085 13.8511 10.4364 13.4268 11.4608C13.0024 12.4852 12.8914 13.6125 13.1077 14.7C13.324 15.7875 13.858 16.7864 14.642 17.5705C15.4261 18.3545 16.425 18.8885 17.5125 19.1048C18.6 19.3211 19.7273 19.2101 20.7517 18.7857C21.7761 18.3614 22.6517 17.6429 23.2677 16.7209C23.8837 15.799 24.2125 14.7151 24.2125 13.6062C24.2125 12.87 24.0675 12.141 23.7857 11.4608C23.504 10.7806 23.0911 10.1626 22.5705 9.64203C22.0499 9.12144 21.4319 8.70849 20.7517 8.42675C20.0715 8.14501 19.3425 8 18.6063 8ZM19.7275 11.963H19.9961C20.0952 11.963 20.1903 12.0024 20.2604 12.0725C20.3305 12.1426 20.3699 12.2376 20.3699 12.3367C20.3699 12.4359 20.3305 12.5309 20.2604 12.601C20.1903 12.6711 20.0952 12.7105 19.9961 12.7105H19.8182C19.7758 13.1488 19.5718 13.5557 19.246 13.852C18.9201 14.1482 18.4957 14.3126 18.0553 14.3131H17.9365L19.3587 15.8126C19.3939 15.848 19.4216 15.8899 19.4402 15.9361C19.4589 15.9823 19.4681 16.0318 19.4674 16.0816C19.4666 16.1314 19.456 16.1806 19.4359 16.2262C19.4159 16.2718 19.387 16.313 19.3509 16.3473C19.3147 16.3816 19.2721 16.4083 19.2255 16.4258C19.1789 16.4434 19.1292 16.4515 19.0794 16.4496C19.0296 16.4477 18.9807 16.4359 18.9356 16.4148C18.8905 16.3937 18.85 16.3638 18.8165 16.3269L16.7958 14.1965C16.7455 14.1435 16.7119 14.0769 16.6991 14.005C16.6863 13.9331 16.6948 13.859 16.7237 13.7918C16.7525 13.7247 16.8004 13.6675 16.8614 13.6273C16.9224 13.5871 16.9938 13.5657 17.0669 13.5656H18.0553C18.2971 13.5651 18.5309 13.4789 18.7152 13.3223C18.8995 13.1658 19.0223 12.949 19.062 12.7105H17.0836C16.9845 12.7105 16.8894 12.6711 16.8193 12.601C16.7492 12.5309 16.7098 12.4359 16.7098 12.3367C16.7098 12.2376 16.7492 12.1426 16.8193 12.0725C16.8894 12.0024 16.9845 11.963 17.0836 11.963H18.8995C18.8057 11.826 18.6799 11.7139 18.5331 11.6364C18.3862 11.559 18.2226 11.5185 18.0566 11.5185H17.0681C16.969 11.5185 16.874 11.4791 16.8039 11.409C16.7338 11.3389 16.6944 11.2439 16.6944 11.1447C16.6944 11.0456 16.7338 10.9505 16.8039 10.8805C16.874 10.8104 16.969 10.771 17.0681 10.771H18.0566C18.0705 10.771 18.0837 10.7727 18.0975 10.773H19.9973C20.0965 10.773 20.1915 10.8124 20.2616 10.8824C20.3317 10.9525 20.3711 11.0476 20.3711 11.1467C20.3711 11.2458 20.3317 11.3409 20.2616 11.411C20.1915 11.4811 20.0965 11.5205 19.9973 11.5205H19.501C19.5974 11.6565 19.6741 11.8055 19.7287 11.963H19.7275Z" fill="#4F7D68"/>
<path d="M26.4204 11.6206L27.6756 10.9929C27.965 10.8483 28.0823 10.4963 27.9376 10.2069C27.7929 9.9174 27.441 9.80009 27.1515 9.94478L25.8963 10.5724C25.6068 10.7171 25.4895 11.069 25.6343 11.3585C25.7795 11.649 26.132 11.7646 26.4204 11.6206Z" fill="#4F7D68"/>
<path d="M27.6756 16.2208L26.4204 15.5932C26.1311 15.4486 25.779 15.5658 25.6343 15.8552C25.4895 16.1447 25.6068 16.4966 25.8963 16.6413L27.1515 17.2689C27.4406 17.4134 27.7927 17.2967 27.9376 17.0069C28.0823 16.7174 27.965 16.3655 27.6756 16.2208Z" fill="#4F7D68"/>
<path d="M11.3592 10.5724L10.1039 9.94478C9.81446 9.80009 9.46258 9.9174 9.31785 10.2069C9.17313 10.4963 9.29043 10.8483 9.57988 10.9929L10.8351 11.6206C11.1234 11.7647 11.4759 11.6491 11.6212 11.3585C11.7659 11.069 11.6486 10.7171 11.3592 10.5724Z" fill="#4F7D68"/>
<path d="M10.8351 15.5932L9.57988 16.2208C9.29043 16.3655 9.17313 16.7174 9.31785 17.0069C9.46278 17.2967 9.81488 17.4134 10.1039 17.2689L11.3592 16.6413C11.6486 16.4966 11.7659 16.1447 11.6212 15.8552C11.4765 15.5658 11.1244 15.4486 10.8351 15.5932Z" fill="#4F7D68"/>
<path d="M23.8539 20.861L21.02 23.695C20.6718 24.0428 20.2096 24.2342 19.7184 24.2342H17.5919C17.2764 24.2342 17.0049 23.9917 16.9901 23.6765C16.9742 23.3401 17.2423 23.0623 17.5754 23.0623H19.4729C20.1661 23.0623 20.728 22.5003 20.728 21.8071C20.728 21.1139 20.1661 20.5519 19.4729 20.5519H15.6513C13.8737 20.5519 13.3105 22.0492 13.2172 22.4347H12.3105V26.7446H20.3904C21.119 26.7446 21.8042 26.4608 22.3198 25.9453L26.5738 21.6911C26.7965 21.4685 26.81 21.098 26.571 20.8597C25.792 20.0826 24.5829 20.132 23.8539 20.861Z" fill="#4F7D68"/>
<path d="M10.5521 21.1797H8.58594C8.26234 21.1797 8 21.442 8 21.7656V27.4141C8 27.7377 8.26234 28 8.58594 28H10.5521C10.8757 28 11.138 27.7377 11.138 27.4141V21.7656C11.138 21.442 10.8757 21.1797 10.5521 21.1797Z" fill="#4F7D68"/>
</g>
<defs>
<clipPath id="clip0_2_22485">
<rect width="20" height="20" fill="white" transform="translate(8 8)"/>
</clipPath>
</defs>
</svg>
