<svg width="32" height="32" viewBox="0 0 32 32" fill="none" xmlns="http://www.w3.org/2000/svg">
<path d="M9.29837 1.33235L24.865 1.33235L24.865 18.399L15.5984 27.999L14.4984 27.1324C14.2539 26.9546 14.0928 26.7546 14.015 26.5324C13.9373 26.3101 13.8984 26.0546 13.8984 25.7657V25.4324L15.3984 18.399L4.66504 18.399C4.15393 18.399 3.69282 18.1935 3.2817 17.7824C2.87059 17.3712 2.66504 16.9101 2.66504 16.399V13.6657C2.66504 13.4212 2.69282 13.1379 2.74837 12.8157C2.80393 12.4935 2.88726 12.2101 2.99837 11.9657L6.86504 3.03235C7.06504 2.56569 7.39282 2.16569 7.84837 1.83235C8.30393 1.49902 8.78726 1.33235 9.29837 1.33235ZM26.865 18.399L26.865 1.33235H30.665L30.665 18.399H26.865Z" fill="#FF7051"/>
</svg>
