<svg width="32" height="32" viewBox="0 0 32 32" fill="none" xmlns="http://www.w3.org/2000/svg">
<path d="M24.0317 27.9987H8.46504V10.932L17.7317 1.33203L18.8317 2.1987C19.0762 2.37648 19.2373 2.57648 19.315 2.7987C19.3928 3.02092 19.4317 3.27648 19.4317 3.56536V3.8987L17.9317 10.932H28.665C29.1762 10.932 29.6373 11.1376 30.0484 11.5487C30.4595 11.9598 30.665 12.4209 30.665 12.932V15.6654C30.665 15.9098 30.6373 16.1931 30.5817 16.5154C30.5262 16.8376 30.4428 17.1209 30.3317 17.3654L26.465 26.2987C26.265 26.7654 25.9373 27.1654 25.4817 27.4987C25.0262 27.832 24.5428 27.9987 24.0317 27.9987ZM6.46504 10.932V27.9987H2.66504V10.932H6.46504Z" fill="#26A670"/>
</svg>
