<svg width="32" height="32" viewBox="0 0 32 32" fill="none" xmlns="http://www.w3.org/2000/svg">
<path d="M27.9993 25.3333V23.1388C27.9993 22.0483 27.3354 21.0678 26.323 20.6628L23.6108 19.5779C22.3231 19.0629 20.8555 19.6208 20.2353 20.8613L19.9993 21.3333C19.9993 21.3333 16.6659 20.6667 13.9993 18C11.3326 15.3333 10.6659 12 10.6659 12L11.138 11.764C12.3784 11.1437 12.9364 9.67618 12.4213 8.38848L11.3365 5.67629C10.9315 4.66387 9.95093 4 8.86051 4H6.66593C5.19318 4 3.99927 5.19391 3.99927 6.66667C3.99927 18.4487 13.5505 28 25.3326 28C26.8054 28 27.9993 26.8061 27.9993 25.3333Z" fill="white"/>
</svg>
