<svg width="32" height="32" viewBox="0 0 32 32" fill="none" xmlns="http://www.w3.org/2000/svg">
<path fill-rule="evenodd" clip-rule="evenodd" d="M12.8249 5.84582C11.8909 8.41413 11.3009 12.0042 11.3009 16.0003C11.3009 16.6225 11.3152 17.2348 11.3429 17.8349C12.8155 17.964 14.3796 18.0336 16.0016 18.0336C17.6231 18.0336 19.1867 17.964 20.659 17.835C20.6867 17.2349 20.701 16.6225 20.701 16.0003C20.701 12.0042 20.111 8.41413 19.177 5.84582C18.7091 4.55906 18.1669 3.56229 17.5967 2.89906C17.5506 2.84541 17.5047 2.79435 17.4589 2.74581C16.98 2.69372 16.4935 2.66699 16.0008 2.66699C15.5082 2.66699 15.0218 2.69371 14.543 2.74577C14.4973 2.79432 14.4513 2.8454 14.4052 2.89906C13.835 3.56229 13.2928 4.55906 12.8249 5.84582ZM20.5787 19.1131C19.1234 19.235 17.5878 19.3002 16.0016 19.3002C14.4149 19.3002 12.8789 19.235 11.4232 19.113C11.6418 21.8468 12.1412 24.2746 12.8249 26.1548C13.2928 27.4415 13.835 28.4383 14.4052 29.1015C14.4513 29.1552 14.4973 29.2063 14.5431 29.2549C15.0218 29.3069 15.5082 29.3337 16.0008 29.3337C16.4935 29.3337 16.98 29.3069 17.4589 29.2548C17.5046 29.2063 17.5506 29.1552 17.5967 29.1015C18.1669 28.4383 18.7091 27.4415 19.177 26.1548C19.8607 24.2746 20.3601 21.8469 20.5787 19.1131ZM10.0695 17.706C10.0462 17.1458 10.0343 16.5766 10.0343 16.0003C10.0343 11.8962 10.6382 8.15295 11.6346 5.41298C11.9546 4.53277 12.3202 3.74217 12.7284 3.07152C7.06228 4.5012 2.8391 9.55784 2.67255 15.6277C2.66945 15.7407 2.66775 15.8541 2.66748 15.9678C3.86229 16.4903 5.45644 16.9503 7.3573 17.3029C8.20863 17.4608 9.1161 17.5962 10.0695 17.706ZM2.73642 17.365C3.96465 17.8396 5.456 18.2384 7.1263 18.5482C8.07248 18.7237 9.08246 18.8718 10.1434 18.989C10.3594 21.9063 10.8863 24.5299 11.6346 26.5876C11.9546 27.4679 12.3202 28.2585 12.7284 28.9291C7.37399 27.5781 3.30808 22.9882 2.73642 17.365ZM21.8585 18.9891C22.9199 18.872 23.9303 18.7238 24.8768 18.5482C26.5464 18.2385 28.0371 17.8399 29.2651 17.3656C28.6932 22.9884 24.6276 27.5779 19.2735 28.929C19.6817 28.2584 20.0473 27.4678 20.3673 26.5876C21.1156 24.5299 21.6425 21.9064 21.8585 18.9891ZM29.3341 15.9685C28.1394 16.4907 26.5459 16.9504 24.6458 17.3029C23.7941 17.4609 22.8863 17.5963 21.9324 17.7062C21.9557 17.1459 21.9676 16.5766 21.9676 16.0003C21.9676 11.8962 21.3637 8.15295 20.3673 5.41298C20.0473 4.53281 19.6817 3.74225 19.2736 3.07163C24.9395 4.50145 29.1625 9.55798 29.329 15.6277C29.3321 15.741 29.3338 15.8546 29.3341 15.9685Z" fill="white"/>
</svg>
