<svg width="84" height="84" viewBox="0 0 84 84" fill="none" xmlns="http://www.w3.org/2000/svg">
<path d="M5.1432 25.7143C5.1432 11.5457 16.6889 0 30.8575 0C45.0518 0 56.5718 11.5457 56.5718 25.7143C56.5718 39.8829 45.0518 51.4286 30.8575 51.4286C27.0003 51.4286 23.2717 50.58 19.7746 48.8829L7.48317 50.7086C6.89174 50.7857 6.2746 50.58 5.83746 50.1429C5.42603 49.7314 5.22034 49.1143 5.29748 48.4971L7.20031 35.7171C5.83746 32.5029 5.1432 29.16 5.1432 25.7143ZM41.4518 28.3629C42.8918 28.3629 44.0746 27.18 44.0746 25.7143C44.0746 24.2486 42.8918 23.0657 41.4518 23.0657C39.986 23.0657 38.8032 24.2486 38.8032 25.7143C38.8032 27.18 39.986 28.3629 41.4518 28.3629ZM30.8832 28.3629C32.3232 28.3629 33.5061 27.18 33.5061 25.7143C33.5061 24.2486 32.3232 23.0657 30.8832 23.0657C29.4175 23.0657 28.2346 24.2486 28.2346 25.7143C28.2346 27.18 29.4175 28.3629 30.8832 28.3629ZM20.2889 28.3629C21.7546 28.3629 22.9375 27.18 22.9375 25.7143C22.9375 24.2486 21.7546 23.0657 20.2889 23.0657C18.8489 23.0657 17.666 24.2486 17.666 25.7143C17.666 27.18 18.8489 28.3629 20.2889 28.3629Z" fill="#649DE5"/>
<path d="M56.5138 83.5714L35.4087 73.441L56.5138 63.3105L77.6189 73.441L56.5138 83.5714Z" fill="black"/>
<path d="M38.0454 62.6298V33.4083L56.8537 24.1533L75.662 33.4083L74.5797 62.6298L56.8537 71.8848L38.0454 62.6298Z" fill="white"/>
<path fill-rule="evenodd" clip-rule="evenodd" d="M56.8534 23.3589L76.3908 32.9726L75.2761 63.0696L56.8629 72.6833L37.3325 63.0731V32.9645L56.8534 23.3589ZM38.7576 33.8515V62.186L56.8438 71.0857L73.8826 62.1895L74.9325 33.8433L56.8534 24.9472L38.7576 33.8515Z" fill="black"/>
<path fill-rule="evenodd" clip-rule="evenodd" d="M56.1408 43.1064L37.7305 34.0472L38.3597 32.7686L56.8534 41.8687L75.347 32.7686L75.9762 34.0472L57.5659 43.1064V71.8844H56.1408V43.1064Z" fill="black"/>
<path d="M65.5845 44.3061L63.7183 40.0405L68.3838 37.7744L67.4507 43.373L65.5845 44.3061Z" fill="black"/>
<path d="M63.7183 55.5034L65.5845 44.3062L67.4507 43.373L69.3169 53.6372L67.0774 59.2358L63.7183 55.5034Z" fill="black"/>
<path d="M69.3167 22.8446C69.3167 29.544 63.8858 34.9749 57.1864 34.9749C50.4871 34.9749 45.0562 29.544 45.0562 22.8446C45.0562 16.1453 50.4871 10.7144 57.1864 10.7144C63.8858 10.7144 69.3167 16.1453 69.3167 22.8446Z" fill="white"/>
<path fill-rule="evenodd" clip-rule="evenodd" d="M57.1864 33.482C63.0613 33.482 67.8238 28.7195 67.8238 22.8446C67.8238 16.9698 63.0613 12.2073 57.1864 12.2073C51.3116 12.2073 46.5491 16.9698 46.5491 22.8446C46.5491 28.7195 51.3116 33.482 57.1864 33.482ZM57.1864 34.9749C63.8858 34.9749 69.3167 29.544 69.3167 22.8446C69.3167 16.1453 63.8858 10.7144 57.1864 10.7144C50.4871 10.7144 45.0562 16.1453 45.0562 22.8446C45.0562 29.544 50.4871 34.9749 57.1864 34.9749Z" fill="black"/>
</svg>
