<svg width="160" height="170" viewBox="0 0 160 170" fill="none" xmlns="http://www.w3.org/2000/svg">
<path d="M40.323 3.50595C40.3658 3.2499 40.4085 2.99384 40.494 2.73779C40.6223 2.35371 40.8788 2.01231 41.1781 1.71359C42.076 0.817398 43.487 0.561345 44.6841 1.03078C45.0689 1.20148 45.411 1.41486 45.7103 1.71359C46.0096 2.01231 46.2233 2.35371 46.3944 2.73779C46.4799 2.99384 46.5226 3.2499 46.5654 3.50595C68.8413 5.04228 86.2002 22.4539 86.2002 43.5784C86.2002 45.4988 85.2168 47.2485 83.6348 48.3153C82.0101 49.3822 79.9578 49.5103 78.1621 48.6994C68.7985 44.4319 62.9409 49.4676 62.5561 49.7663C60.5894 52.0708 57.0406 52.3695 54.7318 50.4491C54.689 50.4491 54.4325 50.2358 54.3897 50.1931C54.347 50.1077 54.2615 50.065 54.0049 49.8517C53.2353 49.2542 50.7555 47.6325 46.6509 47.0351V75.2436C46.6509 80.6208 42.247 85.0164 36.8598 85.0164C31.4298 85.0164 27.0686 80.6208 27.0686 75.2436V73.0245C27.0686 71.2748 28.4796 69.8239 30.2753 69.8239C32.0283 69.8239 33.482 71.2748 33.482 73.0245V75.2436C33.482 77.0787 34.9785 78.615 36.8598 78.615C38.741 78.615 40.2375 77.0787 40.2375 75.2436V47.0777C36.1329 47.6752 33.5248 49.3396 32.5414 50.1077L32.2421 50.4065C31.1305 51.3453 29.805 51.7721 28.4796 51.7721C26.9831 51.7721 25.5294 51.1746 24.5888 50.0224C23.9474 49.4676 18.0899 44.4745 8.72631 48.6994C6.93056 49.5103 4.87828 49.3822 3.25355 48.3153C1.67158 47.2485 0.688194 45.4988 0.688194 43.5784C0.688194 22.4112 18.2182 5.04228 40.323 3.50595Z" fill="#90BEF8"/>
<path d="M102.656 70.6127L159.833 98.6306L85.4281 133.925L28.2517 104.24L102.656 70.6127Z" fill="black"/>
<path d="M25.6118 88.1985V93.3608L85.3472 122.86L159.094 88.1985V82.2987L100.097 55.0114L25.6118 88.1985Z" fill="white"/>
<path fill-rule="evenodd" clip-rule="evenodd" d="M27.6177 92.1142L85.3687 120.633L157.089 86.9248V83.581L100.081 57.2144L27.6177 89.5007V92.1142ZM25.6118 88.1985V93.3608L85.3472 122.86L159.094 88.1985V82.2987L100.097 55.0114L25.6118 88.1985Z" fill="black"/>
<path d="M99.9128 54.2135L159.833 82.2314L85.4281 117.526L55.4682 102.683L40.4883 95.2619L25.6121 88.3055L44.1094 79.4339L62.7106 71.0271L99.9128 54.2135Z" fill="white"/>
<path fill-rule="evenodd" clip-rule="evenodd" d="M40.4883 95.2619L85.4281 117.526L159.833 82.2314L99.9128 54.2135L44.1094 79.4339L25.6121 88.3055L40.4883 95.2619ZM30.3432 88.2821L41.3243 93.4171L85.4463 115.276L155.08 82.2447L99.8991 56.4428L44.9228 81.2894L30.3432 88.2821Z" fill="black"/>
<mask id="mask0_2513_780" style="mask-type:alpha" maskUnits="userSpaceOnUse" x="68" y="70" width="66" height="30">
<path d="M70.0098 86.9095L109.11 70.9083L132.111 81.4268L93.0578 99.0483L70.0098 86.9095Z" fill="white" stroke="black" stroke-width="1.36"/>
</mask>
<g mask="url(#mask0_2513_780)">
<path fill-rule="evenodd" clip-rule="evenodd" d="M89.411 67.127L90.3383 65.3483L129.341 85.6824L128.414 87.4611L89.411 67.127Z" fill="black"/>
<path fill-rule="evenodd" clip-rule="evenodd" d="M77.0657 69.7532L77.993 67.9745L123.634 91.7695L122.707 93.5482L77.0657 69.7532Z" fill="black"/>
<path fill-rule="evenodd" clip-rule="evenodd" d="M71.5789 74.4638L72.5062 72.6851L118.147 96.4801L117.22 98.2588L71.5789 74.4638Z" fill="black"/>
</g>
<mask id="mask1_2513_780" style="mask-type:alpha" maskUnits="userSpaceOnUse" x="42" y="82" width="66" height="31">
<path d="M44.1983 99.4307L83.298 83.4295L106.299 93.948L67.2463 111.569L44.1983 99.4307Z" fill="white" stroke="black" stroke-width="1.36"/>
</mask>
<g mask="url(#mask1_2513_780)">
<path fill-rule="evenodd" clip-rule="evenodd" d="M63.5995 79.6485L64.5268 77.8698L103.53 98.2039L102.602 99.9826L63.5995 79.6485Z" fill="black"/>
</g>
<mask id="mask2_2513_780" style="mask-type:alpha" maskUnits="userSpaceOnUse" x="61" y="65" width="45" height="21">
<path d="M62.9817 82.645L102.479 66.481L104.049 67.1615L65.1448 84.7159L62.9817 82.645Z" fill="white" stroke="black" stroke-width="1.36"/>
</mask>
<g mask="url(#mask2_2513_780)">
<path fill-rule="evenodd" clip-rule="evenodd" d="M61.3871 52.8448L62.3144 51.0661L101.317 71.4002L100.39 73.1789L61.3871 52.8448Z" fill="black"/>
<path fill-rule="evenodd" clip-rule="evenodd" d="M49.0418 55.471L49.9691 53.6923L95.6103 77.4873L94.683 79.266L49.0418 55.471Z" fill="black"/>
<path fill-rule="evenodd" clip-rule="evenodd" d="M43.5549 60.1817L44.4823 58.4029L90.1235 82.1979L89.1962 83.9767L43.5549 60.1817Z" fill="black"/>
</g>
<path fill-rule="evenodd" clip-rule="evenodd" d="M74.9683 99.2H76.4907V102.603H90.3043V104.125H74.9683V99.2Z" fill="black"/>
<path d="M117.796 63.1237L109.684 66.811L130.333 77.1356L138.445 72.7108L117.796 63.1237Z" fill="#060606"/>
<path fill-rule="evenodd" clip-rule="evenodd" d="M109.684 66.811L130.333 77.1356L138.445 72.7108L117.796 63.1237L109.684 66.811ZM114.341 66.8973L130.292 74.8728L133.992 72.8549L117.787 65.3311L114.341 66.8973Z" fill="black"/>
<path fill-rule="evenodd" clip-rule="evenodd" d="M41.4065 95.7413L27.3945 89.104L28.2532 87.2912L42.2652 93.9285L41.4065 95.7413Z" fill="black"/>
<path fill-rule="evenodd" clip-rule="evenodd" d="M84.3438 122.859V116.222H86.3497V122.859H84.3438Z" fill="black"/>
<path d="M130.076 68.5426L130.009 68.4753L129.926 68.429L124.415 65.3677L127.383 63.8839L134.078 67.2313V67.901L131.176 69.6421L130.076 68.5426Z" fill="#010101" stroke="black" stroke-width="1.36"/>
</svg>
