<svg width="168" height="162" viewBox="0 0 168 162" fill="none" xmlns="http://www.w3.org/2000/svg">
<path d="M109.233 6.94315C138.985 6.94315 163.2 30.2933 163.2 59.0468C163.2 69.2745 160.132 78.8589 154.795 86.8996C152.861 89.8586 150.659 92.5603 148.124 95.069L146.056 97.0631C145.389 97.5777 144.789 98.1565 144.122 98.7354C141.12 101.18 137.784 103.303 134.249 105.104C133.382 105.554 132.515 105.94 131.647 106.326C130.78 106.712 129.913 107.098 128.979 107.419C125.844 108.642 122.508 109.606 119.106 110.185C115.904 110.764 112.636 111.086 109.233 111.086C105.765 111.086 102.429 110.764 99.1607 110.121C95.6919 109.542 92.4231 108.642 89.2879 107.419V107.355C88.4207 107.033 87.4868 106.648 86.6196 106.262C85.7524 105.876 84.8851 105.425 84.0179 105.039C83.8178 104.911 83.6844 104.846 83.4843 104.782C81.1495 103.496 78.9482 102.145 76.8803 100.73C76.0131 100.022 75.2124 99.4431 74.4119 98.7998C73.6781 98.1566 72.9444 97.5776 72.2106 96.9343C71.5436 96.2911 70.8098 95.5835 70.1427 94.9403C67.6745 92.4316 65.4732 89.73 63.4719 86.771C58.2687 78.7303 55.2002 69.2102 55.2002 59.0468C55.2002 30.2933 79.415 6.94315 109.233 6.94315ZM83.6176 55.1228L94.2242 65.1576C94.6911 65.5435 94.8914 66.1868 94.758 66.8301L92.223 80.9174C91.9562 82.4612 93.6238 83.619 95.0914 82.9114L108.233 76.2215C108.833 75.9642 109.5 75.9642 110.101 76.2215L123.242 82.9114C124.71 83.619 126.377 82.4612 126.111 80.9174L123.576 66.8301C123.509 66.1868 123.709 65.6078 124.109 65.1576L134.783 55.1228C135.917 54.0293 135.316 52.1638 133.715 51.9065L118.973 49.8483C118.373 49.784 117.839 49.398 117.505 48.8191L110.968 35.954C110.234 34.5388 108.166 34.5388 107.432 35.954L100.895 48.8191C100.561 49.398 100.028 49.784 99.4274 49.8483L84.685 51.9065C83.084 52.1638 82.4836 54.0293 83.6176 55.1228Z" fill="#FFE6A8"/>
<path fill-rule="evenodd" clip-rule="evenodd" d="M39.6576 145.287C18.3995 145.287 1.1665 136.223 1.1665 125.041C1.1665 125.015 1.1666 124.988 1.16679 124.961V114.268H7.06336C13.8767 108.577 25.9276 104.796 39.6576 104.796C53.3875 104.796 65.4384 108.577 72.2518 114.268H78.1489V125.041H78.1486C78.1486 125.041 78.1486 125.041 78.1486 125.041C78.1486 136.223 60.9156 145.287 39.6576 145.287Z" fill="white"/>
<path fill-rule="evenodd" clip-rule="evenodd" d="M39.6575 105.921C53.2112 105.921 64.9542 109.661 71.4882 115.118C71.7002 115.295 71.9713 115.392 72.2518 115.392H76.9826V125.015C76.9824 125.024 76.9823 125.032 76.9823 125.041C76.9823 130.027 73.1238 134.789 66.3164 138.37C59.553 141.927 50.1299 144.162 39.6575 144.162C29.1852 144.162 19.762 141.927 12.9986 138.37C6.19118 134.789 2.3327 130.027 2.3327 125.041L2.33298 124.961V115.392H7.06318C7.34368 115.392 7.61479 115.295 7.82682 115.118C14.3608 109.661 26.1038 105.921 39.6575 105.921ZM79.3151 125.067C79.3153 125.059 79.3154 125.05 79.3154 125.041V114.268C79.3154 113.646 78.7932 113.143 78.149 113.143H72.6811C65.5384 107.376 53.3478 103.671 39.6575 103.671C25.9672 103.671 13.7766 107.376 6.6339 113.143H1.16659C0.5224 113.143 0.000190735 113.646 0.000190735 114.268V124.96L-0.000106812 125.041C-0.000106812 131.237 4.75796 136.598 11.8816 140.344C19.0493 144.114 28.8718 146.411 39.6575 146.411C50.4433 146.411 60.2657 144.114 67.4334 140.344C74.5471 136.603 79.3018 131.252 79.3151 125.067Z" fill="black"/>
<path fill-rule="evenodd" clip-rule="evenodd" d="M39.6576 135.34C18.3995 135.34 1.1665 126.276 1.1665 115.095C1.1665 115.068 1.1666 115.041 1.16679 115.015V104.321H7.06336C13.8767 98.6305 25.9276 94.8494 39.6576 94.8494C53.3875 94.8494 65.4384 98.6305 72.2518 104.321H78.1489V115.094H78.1486C78.1486 115.094 78.1486 115.095 78.1486 115.095C78.1486 126.276 60.9156 135.34 39.6576 135.34Z" fill="white"/>
<path fill-rule="evenodd" clip-rule="evenodd" d="M39.6575 95.9742C53.2112 95.9742 64.9542 99.714 71.4882 105.171C71.7002 105.348 71.9713 105.446 72.2518 105.446H76.9826V115.069C76.9824 115.077 76.9823 115.086 76.9823 115.094C76.9823 120.08 73.1238 124.842 66.3164 128.423C59.553 131.98 50.1299 134.215 39.6575 134.215C29.1852 134.215 19.762 131.98 12.9986 128.423C6.19118 124.842 2.3327 120.081 2.3327 115.095L2.33298 115.015V105.446H7.06318C7.34368 105.446 7.61479 105.348 7.82682 105.171C14.3608 99.714 26.1038 95.9742 39.6575 95.9742ZM79.3151 115.121C79.3153 115.112 79.3154 115.103 79.3154 115.094V104.321C79.3154 103.7 78.7932 103.196 78.149 103.196H72.6811C65.5384 97.4292 53.3478 93.7247 39.6575 93.7247C25.9672 93.7247 13.7766 97.4292 6.6339 103.196H1.16659C0.5224 103.196 0.000190735 103.7 0.000190735 104.321V115.014L-0.000106812 115.095C-0.000106812 121.29 4.75796 126.651 11.8816 130.398C19.0493 134.168 28.8718 136.465 39.6575 136.465C50.4433 136.465 60.2657 134.168 67.4334 130.398C74.5471 126.656 79.3018 121.305 79.3151 115.121Z" fill="black"/>
<path fill-rule="evenodd" clip-rule="evenodd" d="M39.6576 125.394C18.3995 125.394 1.1665 116.329 1.1665 105.148C1.1665 105.121 1.1666 105.095 1.16679 105.068V94.3744H7.06336C13.8767 88.6839 25.9276 84.9028 39.6576 84.9028C53.3875 84.9028 65.4384 88.6839 72.2518 94.3744H78.1489V105.148H78.1486C78.1486 105.148 78.1486 105.148 78.1486 105.148C78.1486 116.329 60.9156 125.394 39.6576 125.394Z" fill="white"/>
<path fill-rule="evenodd" clip-rule="evenodd" d="M39.6575 86.0276C53.2112 86.0276 64.9542 89.7674 71.4882 95.2246C71.7002 95.4017 71.9713 95.4992 72.2518 95.4992H76.9826V105.122C76.9824 105.131 76.9823 105.139 76.9823 105.148C76.9823 110.134 73.1238 114.896 66.3164 118.476C59.553 122.034 50.1299 124.269 39.6575 124.269C29.1852 124.269 19.762 122.034 12.9986 118.476C6.19118 114.896 2.3327 110.134 2.3327 105.148L2.33298 105.068V95.4992H7.06318C7.34368 95.4992 7.61479 95.4017 7.82682 95.2246C14.3608 89.7674 26.1038 86.0276 39.6575 86.0276ZM79.3151 105.174C79.3153 105.165 79.3154 105.156 79.3154 105.148V94.3744C79.3154 93.7533 78.7932 93.2497 78.149 93.2497H72.6811C65.5384 87.4826 53.3478 83.7781 39.6575 83.7781C25.9672 83.7781 13.7766 87.4826 6.6339 93.2497H1.16659C0.5224 93.2497 0.000190735 93.7533 0.000190735 94.3744V105.067L-0.000106812 105.148C-0.000106812 111.343 4.75796 116.704 11.8816 120.451C19.0493 124.221 28.8718 126.518 39.6575 126.518C50.4433 126.518 60.2657 124.221 67.4334 120.451C74.5471 116.71 79.3018 111.358 79.3151 105.174Z" fill="black"/>
<path fill-rule="evenodd" clip-rule="evenodd" d="M39.6576 114.897C18.3995 114.897 1.1665 105.832 1.1665 94.6512C1.1665 94.6245 1.1666 94.5978 1.16679 94.5711V83.8774H7.06336C13.8767 78.1869 25.9276 74.4058 39.6576 74.4058C53.3875 74.4058 65.4384 78.1869 72.2518 83.8774H78.1489V94.6506H78.1486C78.1486 94.6508 78.1486 94.651 78.1486 94.6512C78.1486 105.832 60.9156 114.897 39.6576 114.897Z" fill="white"/>
<path fill-rule="evenodd" clip-rule="evenodd" d="M39.6575 75.5306C53.2112 75.5306 64.9542 79.2704 71.4882 84.7276C71.7002 84.9047 71.9713 85.0022 72.2518 85.0022H76.9826V94.6252C76.9824 94.6337 76.9823 94.6421 76.9823 94.6506C76.9823 99.6367 73.1238 104.399 66.3164 107.979C59.553 111.537 50.1299 113.772 39.6575 113.772C29.1852 113.772 19.762 111.537 12.9986 107.979C6.19118 104.399 2.3327 99.6373 2.3327 94.6512L2.33298 94.5711V85.0022H7.06318C7.34368 85.0022 7.61479 84.9047 7.82682 84.7276C14.3608 79.2704 26.1038 75.5306 39.6575 75.5306ZM79.3151 94.6773C79.3153 94.6684 79.3154 94.6595 79.3154 94.6505V83.8774C79.3154 83.2562 78.7932 82.7527 78.149 82.7527H72.6811C65.5384 76.9856 53.3478 73.2811 39.6575 73.2811C25.9672 73.2811 13.7766 76.9856 6.6339 82.7527H1.16659C0.5224 82.7527 0.000190735 83.2562 0.000190735 83.8774V94.5703L-0.000106812 94.6512C-0.000106812 100.846 4.75796 106.207 11.8816 109.954C19.0493 113.724 28.8718 116.021 39.6575 116.021C50.4433 116.021 60.2657 113.724 67.4334 109.954C74.5471 106.213 79.3018 100.861 79.3151 94.6773Z" fill="black"/>
<path d="M1.16649 83.8782C1.16649 95.0594 18.3996 104.124 39.6577 104.124C60.9158 104.124 78.1489 95.0594 78.1489 83.8782C78.1489 72.697 60.9158 63.6328 39.6577 63.6328C18.3996 63.6328 1.16649 72.697 1.16649 83.8782Z" fill="white"/>
<path fill-rule="evenodd" clip-rule="evenodd" d="M66.3162 70.5499C73.1237 74.1305 76.9821 78.8921 76.9821 83.8782C76.9821 88.8642 73.1237 93.6259 66.3162 97.2064C59.5528 100.764 50.1297 102.999 39.6573 102.999C29.185 102.999 19.7618 100.764 12.9985 97.2064C6.191 93.6259 2.33251 88.8642 2.33251 83.8782C2.33251 78.8921 6.191 74.1305 12.9985 70.5499C19.7618 66.9926 29.185 64.7575 39.6573 64.7575C50.1297 64.7575 59.5528 66.9926 66.3162 70.5499ZM67.4333 68.5751C60.2655 64.8051 50.4431 62.5081 39.6573 62.5081C28.8716 62.5081 19.0491 64.8051 11.8814 68.5751C4.75777 72.322 -0.000289917 77.683 -0.000289917 83.8782C-0.000289917 90.0733 4.75777 95.4344 11.8814 99.1812C19.0491 102.951 28.8716 105.248 39.6573 105.248C50.4431 105.248 60.2655 102.951 67.4333 99.1812C74.5569 95.4344 79.3149 90.0733 79.3149 83.8782C79.3149 77.683 74.5569 72.322 67.4333 68.5751Z" fill="black"/>
<path d="M10.6965 83.2451C10.6965 90.5695 23.7813 96.5072 39.9222 96.5072C56.0631 96.5072 69.1479 90.5695 69.1479 83.2451C69.1479 75.9206 56.0631 69.983 39.9222 69.983C23.7813 69.983 10.6965 75.9206 10.6965 83.2451Z" fill="white"/>
<path fill-rule="evenodd" clip-rule="evenodd" d="M60.0914 74.885C65.2843 77.2415 67.9817 80.2744 67.9817 83.2451C67.9817 86.2157 65.2843 89.2486 60.0914 91.6051C54.99 93.92 47.8604 95.3824 39.9223 95.3824C31.9842 95.3824 24.8547 93.92 19.7532 91.6051C14.5603 89.2486 11.863 86.2157 11.863 83.2451C11.863 80.2744 14.5603 77.2415 19.7532 74.885C24.8547 72.5701 31.9842 71.1077 39.9223 71.1077C47.8604 71.1077 54.99 72.5701 60.0914 74.885ZM61.0847 72.8496C55.6085 70.3646 48.1252 68.8582 39.9223 68.8582C31.7195 68.8582 24.2362 70.3646 18.7599 72.8496C13.3752 75.2931 9.53017 78.8913 9.53017 83.2451C9.53017 87.5989 13.3752 91.197 18.7599 93.6405C24.2362 96.1255 31.7195 97.6319 39.9223 97.6319C48.1252 97.6319 55.6085 96.1255 61.0847 93.6405C66.4694 91.197 70.3145 87.5989 70.3145 83.2451C70.3145 78.8913 66.4694 75.2931 61.0847 72.8496Z" fill="black"/>
<path fill-rule="evenodd" clip-rule="evenodd" d="M99.4234 158.281C81.0138 158.281 66.0898 150.432 66.0898 140.749C66.0898 140.725 66.0899 140.701 66.0901 140.677V131.419H71.1959C77.0962 126.491 87.5327 123.216 99.4234 123.216C111.314 123.216 121.751 126.491 127.651 131.419H132.757V140.749H132.757C132.757 140.749 132.757 140.749 132.757 140.749C132.757 150.432 117.833 158.281 99.4234 158.281Z" fill="white"/>
<path fill-rule="evenodd" clip-rule="evenodd" d="M99.4232 124.341C111.138 124.341 121.266 127.574 126.887 132.269C127.099 132.446 127.37 132.544 127.651 132.544H131.591V140.724C131.591 140.732 131.591 140.74 131.591 140.749C131.591 144.986 128.309 149.069 122.435 152.159C116.605 155.225 108.471 157.157 99.4232 157.157C90.3751 157.157 82.2413 155.225 76.4112 152.159C70.5371 149.069 67.2559 144.986 67.2559 140.749L67.2561 140.677V132.544H71.1956C71.4761 132.544 71.7472 132.446 71.9593 132.269C77.5802 127.574 87.7088 124.341 99.4232 124.341ZM128.079 130.294C121.851 125.29 111.275 122.091 99.4232 122.091C87.5715 122.091 76.9955 125.29 70.7671 130.294H66.0897C65.4455 130.294 64.9233 130.798 64.9233 131.419V140.677L64.9231 140.749C64.9231 146.195 69.1039 150.878 75.2942 154.134C81.5286 157.413 90.0617 159.406 99.4232 159.406C108.785 159.406 117.318 157.413 123.552 154.134C129.733 150.883 133.91 146.21 133.923 140.775" fill="black"/>
<path fill-rule="evenodd" clip-rule="evenodd" d="M99.4234 149.19C81.0138 149.19 66.0898 141.341 66.0898 131.658C66.0898 131.634 66.0899 131.61 66.0901 131.586V122.328H71.1959C77.0962 117.4 87.5327 114.125 99.4234 114.125C111.314 114.125 121.751 117.4 127.651 122.328H132.757V131.658H132.757C132.757 131.658 132.757 131.658 132.757 131.658C132.757 141.341 117.833 149.19 99.4234 149.19Z" fill="white"/>
<path fill-rule="evenodd" clip-rule="evenodd" d="M99.4232 115.25C111.138 115.25 121.266 118.483 126.887 123.178C127.099 123.355 127.37 123.453 127.651 123.453H131.591V131.633C131.591 131.641 131.591 131.65 131.591 131.658C131.591 135.895 128.309 139.978 122.435 143.068C116.605 146.134 108.471 148.066 99.4232 148.066C90.3751 148.066 82.2413 146.134 76.4112 143.068C70.5371 139.978 67.2559 135.895 67.2559 131.658L67.2561 131.586V123.453H71.1956C71.4761 123.453 71.7472 123.355 71.9593 123.178C77.5802 118.483 87.7088 115.25 99.4232 115.25ZM128.079 121.203C121.851 116.199 111.275 113 99.4232 113C87.5715 113 76.9955 116.199 70.7671 121.203H66.0897C65.4455 121.203 64.9233 121.707 64.9233 122.328V131.586L64.9231 131.658C64.9231 137.104 69.1039 141.787 75.2942 145.043C81.5286 148.322 90.0617 150.315 99.4232 150.315C108.785 150.315 117.318 148.322 123.552 145.043C129.733 141.792 133.91 137.119 133.923 131.684" fill="black"/>
<path d="M66.0893 122.329C66.0893 132.012 81.0134 139.861 99.4231 139.861C117.833 139.861 132.757 132.012 132.757 122.329C132.757 112.645 117.833 104.796 99.4231 104.796C81.0134 104.796 66.0893 112.645 66.0893 122.329Z" fill="white"/>
<path fill-rule="evenodd" clip-rule="evenodd" d="M122.435 110.918C128.309 114.008 131.591 118.092 131.591 122.329C131.591 126.565 128.309 130.649 122.435 133.739C116.605 136.805 108.471 138.736 99.4232 138.736C90.375 138.736 82.2412 136.805 76.4112 133.739C70.5371 130.649 67.2558 126.565 67.2558 122.329C67.2558 118.092 70.5371 114.008 76.4112 110.918C82.2412 107.852 90.375 105.921 99.4232 105.921C108.471 105.921 116.605 107.852 122.435 110.918ZM123.552 108.944C117.318 105.664 108.785 103.671 99.4232 103.671C90.0616 103.671 81.5285 105.664 75.2941 108.944C69.1038 112.2 64.923 116.882 64.923 122.329C64.923 127.775 69.1038 132.457 75.2941 135.713C81.5285 138.993 90.0616 140.986 99.4232 140.986C108.785 140.986 117.318 138.993 123.552 135.713C129.743 132.457 133.923 127.775 133.923 122.329C133.923 116.882 129.743 112.2 123.552 108.944Z" fill="black"/>
<path d="M74.3429 121.78C74.3429 128.123 85.6744 133.265 99.6526 133.265C113.631 133.265 124.962 128.123 124.962 121.78C124.962 115.436 113.631 110.294 99.6526 110.294C85.6744 110.294 74.3429 115.436 74.3429 121.78Z" fill="white"/>
<path fill-rule="evenodd" clip-rule="evenodd" d="M117.053 114.676C121.537 116.711 123.796 119.3 123.796 121.78C123.796 124.259 121.537 126.848 117.053 128.883C112.66 130.876 106.509 132.14 99.6527 132.14C92.796 132.14 86.6455 130.876 82.2527 128.883C77.7685 126.848 75.5094 124.259 75.5094 121.78C75.5094 119.3 77.7685 116.711 82.2527 114.676C86.6455 112.683 92.796 111.419 99.6527 111.419C106.509 111.419 112.66 112.683 117.053 114.676ZM118.046 112.641C113.279 110.477 106.774 109.17 99.6527 109.17C92.5313 109.17 86.027 110.477 81.2594 112.641C76.5833 114.763 73.1766 117.916 73.1766 121.78C73.1766 125.643 76.5833 128.796 81.2594 130.918C86.027 133.082 92.5313 134.389 99.6527 134.389C106.774 134.389 113.279 133.082 118.046 130.918C122.722 128.796 126.129 125.643 126.129 121.78C126.129 117.916 122.722 114.763 118.046 112.641Z" fill="black"/>
<path d="M21.0117 101.481V112.256" stroke="black" stroke-width="1.36" stroke-linejoin="round"/>
<path d="M15.8545 99.8228V110.598" stroke="black" stroke-width="1.36" stroke-linejoin="round"/>
<path d="M17.5732 111.427V122.202" stroke="black" stroke-width="1.36" stroke-linejoin="round"/>
<path d="M12.416 108.94V118.887" stroke="black" stroke-width="1.36" stroke-linejoin="round"/>
<path d="M24.4502 123.031V132.978" stroke="black" stroke-width="1.36" stroke-linejoin="round"/>
<path d="M29.6074 124.689V134.636" stroke="black" stroke-width="1.36" stroke-linejoin="round"/>
<path d="M76.0249 134.636V144.583" stroke="black" stroke-width="1.36" stroke-linejoin="round"/>
<path d="M71.727 132.978L76.0249 134.636V143.754L71.727 141.267V132.978Z" fill="black" stroke="black" stroke-width="1.36"/>
<path d="M80.3227 146.24L84.6206 147.898V157.016L80.3227 154.529V146.24Z" fill="black" stroke="black" stroke-width="1.36"/>
<path d="M10.697 98.1651L15.8545 99.9504V109.769L10.697 107.091V98.1651Z" fill="black" stroke="black" stroke-width="1.36"/>
<path d="M17.5735 111.427L22.731 113.212V123.031L17.5735 120.353V111.427Z" fill="black" stroke="black" stroke-width="1.36"/>
<path d="M19.2927 123.031L24.4502 124.817V134.636L19.2927 131.958V123.031Z" fill="black" stroke="black" stroke-width="1.36"/>
<path d="M8.97777 128.005L14.1353 129.79V139.609L8.97777 136.931V128.005Z" fill="black" stroke="black" stroke-width="1.36"/>
<path d="M81.1821 136.294V146.24" stroke="black" stroke-width="1.36" stroke-linejoin="round"/>
<path d="M84.6206 147.898V156.187" stroke="black" stroke-width="1.36" stroke-linejoin="round"/>
<path d="M14.1353 129.663V139.609" stroke="black" stroke-width="1.36" stroke-linejoin="round"/>
</svg>
