<svg width="24" height="24" viewBox="0 0 24 24" fill="none" xmlns="http://www.w3.org/2000/svg">
<path d="M2.70011 17.625C2.50011 17.425 2.40428 17.1875 2.41261 16.9125C2.42094 16.6375 2.51678 16.4083 2.70011 16.225L7.97511 10.875C8.35844 10.4917 8.83344 10.3 9.40011 10.3C9.96678 10.3 10.4418 10.4917 10.8251 10.875L13.4001 13.475L18.6001 8.32501H17.0001C16.7168 8.32501 16.4793 8.22918 16.2876 8.03751C16.0959 7.84585 16.0001 7.60835 16.0001 7.32501C16.0001 7.04168 16.0959 6.80418 16.2876 6.61251C16.4793 6.42085 16.7168 6.32501 17.0001 6.32501H21.0001C21.2834 6.32501 21.5209 6.42085 21.7126 6.61251C21.9043 6.80418 22.0001 7.04168 22.0001 7.32501V11.325C22.0001 11.6083 21.9043 11.8458 21.7126 12.0375C21.5209 12.2292 21.2834 12.325 21.0001 12.325C20.7168 12.325 20.4793 12.2292 20.2876 12.0375C20.0959 11.8458 20.0001 11.6083 20.0001 11.325V9.72501L14.8251 14.9C14.4418 15.2833 13.9668 15.475 13.4001 15.475C12.8334 15.475 12.3584 15.2833 11.9751 14.9L9.40011 12.325L4.10011 17.625C3.91678 17.8083 3.68344 17.9 3.40011 17.9C3.11678 17.9 2.88344 17.8083 2.70011 17.625Z" fill="#26A670"/>
</svg>
