<svg width="19" height="17" viewBox="0 0 19 17" fill="none" xmlns="http://www.w3.org/2000/svg">
<path id="Vector" d="M18.4501 12.9467L11.4668 1.62902C10.614 0.245405 8.6858 0.245405 7.83389 1.62902L0.850576 12.9467C-0.0803545 14.459 0.951389 16.4519 2.66703 16.4519H16.6337C18.3493 16.4519 19.381 14.4589 18.4501 12.9467ZM9.65023 3.6295C10.1152 3.6295 10.4913 4.02428 10.4913 4.5125V4.53157L10.365 10.2337C10.3541 10.64 10.0371 10.9651 9.65024 10.9651C9.26335 10.9651 8.94637 10.6409 8.93547 10.2347L8.80922 4.53252C8.79742 4.03571 9.17704 3.6295 9.65023 3.6295ZM9.65023 14.7241C9.08803 14.7241 8.63392 14.2473 8.63392 13.657C8.63392 13.0668 9.08803 12.59 9.65023 12.59C10.2124 12.59 10.6665 13.0668 10.6665 13.657C10.6665 14.2473 10.2124 14.7241 9.65023 14.7241Z" fill="#DC2626"/>
</svg>
