<svg width="24" height="14" viewBox="0 0 24 14" fill="none" xmlns="http://www.w3.org/2000/svg">
<path id="Vector" d="M21.6667 3.66634H1.66667C1.22464 3.66634 0.800716 3.49075 0.488156 3.17819C0.175595 2.86562 0 2.4417 0 1.99967C0 1.55765 0.175595 1.13372 0.488156 0.821163C0.800716 0.508603 1.22464 0.333008 1.66667 0.333008H21.6667C22.1087 0.333008 22.5326 0.508603 22.8452 0.821163C23.1577 1.13372 23.3333 1.55765 23.3333 1.99967C23.3333 2.4417 23.1577 2.86562 22.8452 3.17819C22.5326 3.49075 22.1087 3.66634 21.6667 3.66634ZM21.6667 13.6663H1.66667C1.22464 13.6663 0.800716 13.4907 0.488156 13.1782C0.175595 12.8656 0 12.4417 0 11.9997C0 11.5576 0.175595 11.1337 0.488156 10.8212C0.800716 10.5086 1.22464 10.333 1.66667 10.333H21.6667C22.1087 10.333 22.5326 10.5086 22.8452 10.8212C23.1577 11.1337 23.3333 11.5576 23.3333 11.9997C23.3333 12.4417 23.1577 12.8656 22.8452 13.1782C22.5326 13.4907 22.1087 13.6663 21.6667 13.6663Z" fill="white"/>
</svg>
