<svg width="80" height="80" viewBox="0 0 80 80" fill="none" xmlns="http://www.w3.org/2000/svg">
<path d="M35.994 10.2366H35.6466V9.62857C35.6466 8.73829 34.9083 8 34.018 8C33.1277 8 32.3894 8.73829 32.3894 9.62857V10.2366H13.3243V9.62857C13.3243 8.73829 12.6077 8 11.6957 8C10.8054 8 10.0672 8.73829 10.0672 9.62857V10.2366H9.71972C4.98601 10.2366 1.14258 14.08 1.14258 18.8137V42.8514C1.14258 47.5851 4.98601 51.4286 9.71972 51.4286H35.994C40.7277 51.4286 44.5711 47.5851 44.5711 42.8514V18.8137C44.5711 14.08 40.7277 10.2366 35.994 10.2366ZM9.82829 44.8491C8.63401 44.8491 7.65686 43.8937 7.65686 42.6777C7.65686 41.4834 8.63401 40.5063 9.82829 40.5063C11.0226 40.5063 11.9997 41.4834 11.9997 42.6777C11.9997 43.8937 11.0226 44.8491 9.82829 44.8491ZM9.82829 37.2926C8.63401 37.2926 7.65686 36.3154 7.65686 35.1212C7.65686 33.9052 8.63401 32.9497 9.82829 32.9497C11.0226 32.9497 11.9997 33.9052 11.9997 35.1212C11.9997 36.3154 11.0226 37.2926 9.82829 37.2926ZM9.82829 29.7143C8.63401 29.7143 7.65686 28.7371 7.65686 27.5429C7.65686 26.3486 8.63401 25.3714 9.82829 25.3714C11.0226 25.3714 11.9997 26.3486 11.9997 27.5429C11.9997 28.7371 11.0226 29.7143 9.82829 29.7143ZM18.514 44.8491C17.3197 44.8491 16.3426 43.8937 16.3426 42.6777C16.3426 41.4834 17.3197 40.5063 18.514 40.5063C19.7083 40.5063 20.6854 41.4834 20.6854 42.6777C20.6854 43.8937 19.7083 44.8491 18.514 44.8491ZM18.514 37.2926C17.3197 37.2926 16.3426 36.3154 16.3426 35.1212C16.3426 33.9052 17.3197 32.9497 18.514 32.9497C19.7083 32.9497 20.6854 33.9052 20.6854 35.1212C20.6854 36.3154 19.7083 37.2926 18.514 37.2926ZM18.514 29.7143C17.3197 29.7143 16.3426 28.7371 16.3426 27.5429C16.3426 26.3486 17.3197 25.3714 18.514 25.3714C19.7083 25.3714 20.6854 26.3486 20.6854 27.5429C20.6854 28.7371 19.7083 29.7143 18.514 29.7143ZM27.1997 44.8491C26.0054 44.8491 25.0283 43.8937 25.0283 42.6777C25.0283 41.4834 26.0054 40.5063 27.1997 40.5063C28.394 40.5063 29.3711 41.4834 29.3711 42.6777C29.3711 43.8937 28.394 44.8491 27.1997 44.8491ZM27.1997 37.2926C26.0054 37.2926 25.0283 36.3154 25.0283 35.1212C25.0283 33.9052 26.0054 32.9497 27.1997 32.9497C28.394 32.9497 29.3711 33.9052 29.3711 35.1212C29.3711 36.3154 28.394 37.2926 27.1997 37.2926ZM27.1997 29.7143C26.0054 29.7143 25.0283 28.7371 25.0283 27.5429C25.0283 26.3486 26.0054 25.3714 27.1997 25.3714C28.394 25.3714 29.3711 26.3486 29.3711 27.5429C29.3711 28.7371 28.394 29.7143 27.1997 29.7143ZM35.8854 37.2926C34.6911 37.2926 33.714 36.3154 33.714 35.1212C33.714 33.9052 34.6911 32.9497 35.8854 32.9497C37.0797 32.9497 38.0569 33.9052 38.0569 35.1212C38.0569 36.3154 37.0797 37.2926 35.8854 37.2926ZM35.8854 29.7143C34.6911 29.7143 33.714 28.7371 33.714 27.5429C33.714 26.3486 34.6911 25.3714 35.8854 25.3714C37.0797 25.3714 38.0569 26.3486 38.0569 27.5429C38.0569 28.7371 37.0797 29.7143 35.8854 29.7143ZM41.314 19.1828H4.39972V18.8137C4.39972 15.8823 6.78829 13.4937 9.71972 13.4937H10.0672V14.1017C10.0672 15.0137 10.8054 15.7303 11.6957 15.7303C12.6077 15.7303 13.3243 15.0137 13.3243 14.1017V13.4937H32.3894V14.1017C32.3894 15.0137 33.1277 15.7303 34.018 15.7303C34.9083 15.7303 35.6466 15.0137 35.6466 14.1017V13.4937H35.994C38.9254 13.4937 41.314 15.8823 41.314 18.8137V19.1828Z" fill="#90BEF8"/>
<path d="M53.9573 42.7824L76.9841 54.0662L47.019 68.2803L23.9922 56.3252L53.9573 42.7824Z" fill="black"/>
<path d="M52.8531 39.1687L76.9848 50.4525L47.0197 64.6665L22.888 52.7114L52.8531 39.1687Z" fill="white"/>
<path fill-rule="evenodd" clip-rule="evenodd" d="M52.8611 37.7654L79.9772 50.4446L47.0076 66.0839L19.9081 52.6585L52.8611 37.7654ZM52.8525 39.1693L76.9842 50.453L47.0191 64.6671L22.8874 52.712L52.8525 39.1693Z" fill="black"/>
<mask id="mask0_5585_5704" style="mask-type:alpha" maskUnits="userSpaceOnUse" x="35" y="43" width="32" height="15">
<path d="M36.2791 50.1747L51.3985 43.9872L65.2073 50.1341L50.0924 56.9542L36.2791 50.1747Z" fill="white" stroke="black" stroke-width="1.03702"/>
</mask>
<g mask="url(#mask0_5585_5704)">
<path fill-rule="evenodd" clip-rule="evenodd" d="M48.5187 44.572L49.1026 43.452L64.8104 51.6412L64.2264 52.7612L48.5187 44.572Z" fill="black"/>
<path fill-rule="evenodd" clip-rule="evenodd" d="M43.5461 45.6295L44.1301 44.5094L62.5113 54.0924L61.9274 55.2125L43.5461 45.6295Z" fill="black"/>
<path fill-rule="evenodd" clip-rule="evenodd" d="M41.3372 47.5269L41.9211 46.4069L60.3023 55.9899L59.7184 57.11L41.3372 47.5269Z" fill="black"/>
</g>
<path fill-rule="evenodd" clip-rule="evenodd" d="M42.1016 54.7803H43.3647V56.3584H50.4671V57.6216H42.1016V54.7803Z" fill="black"/>
</svg>
